<?xml version="1.0" encoding="utf-8"?>
<!-- Generator: Adobe Illustrator 23.0.1, SVG Export Plug-In . SVG Version: 6.00 Build 0)  -->
<svg version="1.1" id="Layer_1" xmlns="http://www.w3.org/2000/svg" xmlns:xlink="http://www.w3.org/1999/xlink" x="0px" y="0px"
	 viewBox="0 0 1600 900" style="enable-background:new 0 0 1600 900;" xml:space="preserve">
<style type="text/css">
	.st0{fill:#FCFCFC;}
	.st1{fill:#E5DADA;}
	.st2{fill:#5486F7;}
	.st3{fill:#FFFFFF;}
</style>
<rect x="136.3" y="180.6" class="st0" width="1329.5" height="540.7"/>
<g>
	<path class="st1" d="M376.1,552.2c20.5,10.8,53.2,21.5,86.5,21.5c35.8,0,54.8-14.8,54.8-37.4c0-21.5-16.4-33.8-57.9-48.1
		c-57.3-20.5-95.2-52.2-95.2-102.4c0-58.9,49.7-103.4,130.5-103.4c39.4,0,67.6,7.7,88.1,17.4l-17.4,62.5
		c-13.3-6.7-38.4-16.4-71.7-16.4c-33.8,0-50.2,15.9-50.2,33.3c0,22,18.9,31.7,64,48.6c60.9,22.5,89.1,54.3,89.1,102.9
		c0,57.8-44,107-138.7,107c-39.4,0-78.3-10.8-97.8-21.5L376.1,552.2z"/>
	<path class="st2" d="M448,629.6c-40.8,0-79.8-11.3-98.8-21.8l-1.3-0.7l16.9-68l2.3,1.2c19.6,10.3,52.4,21.3,85.6,21.3
		c33,0,52.8-13.2,52.8-35.4c0-19.7-14.8-31.8-56.5-46.2c-65-23.2-96.6-57.3-96.6-104.3c0-63.1,53.3-105.4,132.5-105.4
		c34.4,0,64.3,5.9,88.9,17.6l1.5,0.7l-18.5,66.4l-2.2-1.1c-14.8-7.4-39-16.2-70.8-16.2c-33.3,0-48.2,15.7-48.2,31.3
		c0,19.9,15.7,29.1,62.7,46.8c62.5,23.1,90.4,55.4,90.4,104.8C588.8,573.3,551.8,629.6,448,629.6z M352.5,605.1
		c19,10,56.3,20.5,95.5,20.5c100.8,0,136.7-54.2,136.7-105c0-47.4-27.1-78.6-87.8-101c-45.4-17-65.3-27-65.3-50.5
		c0-17.6,16.1-35.3,52.2-35.3c31,0,55.1,8.2,70.4,15.5l16.3-58.5c-23.8-10.9-52.6-16.5-85.7-16.5c-76.9,0-128.5,40.8-128.5,101.4
		c0,45.1,30.7,77.9,93.9,100.5c43.7,15.1,59.2,28.2,59.2,50c0,24.7-21.2,39.4-56.8,39.4c-32.7,0-65-10.4-85.2-20.6L352.5,605.1z"/>
	<path class="st1" d="M731.4,632.5L620.8,287.5h85.5l42,145.9c11.8,41.5,23.3,80.4,31.5,123.4l0,0c8.7-41.5,20.2-82.4,32-121.8
		l44-147.4h82.9L822.5,632.5H731.4z"/>
	<path class="st2" d="M814,624.5h-94L608.1,275.5h89.7l45.8,159.2c9.8,34.3,19.1,66.9,26.3,102.2c8.9-40.3,20.1-79.3,30-112.5
		l44.5-148.9h87.2L814,624.5z M722.9,620.5h88.2L926,279.5h-78.7l-43.6,146c-10.7,35.7-22.8,78.2-32,121.7l-2.1,9.8l-1.9-9.8
		c-7.4-38.8-17.4-74.1-28.1-111.4l-3.4-11.8l-41.6-144.5h-81.2L722.9,620.5z"/>
	<path class="st1" d="M1259.8,616.7c-24.1,8.2-69.6,19.5-115.2,19.5c-63,0-108.5-15.9-140.3-46.1c-31.2-30.2-48.6-75.3-48.6-125.9
		c0.5-114.7,84-180.2,197.1-180.2c44.5,0,78.8,8.7,95.7,16.4l-16.4,63c-18.9-8.7-42-14.9-79.9-14.9c-65,0-114.7,36.4-114.7,111.6
		c0,71.7,45,113.1,109,113.1c17.4,0,31.7-2,37.9-4.6v-72.7h-53.2v-60.9h128.5V616.7z"/>
	<path class="st2" d="M1134.6,628.1c-62.3,0-108.7-15.2-141.7-46.6c-31.8-30.7-49.3-76-49.3-127.4c0.5-110.7,78.6-182.2,199.1-182.2
		c44.3,0,79,8.6,96.6,16.6l1.5,0.7l-17.4,66.9l-2.2-1c-14.9-6.8-37.3-14.7-79-14.7c-70.6,0-112.7,41-112.7,109.6
		c0,67.5,42,111.1,107,111.1c17,0,29.9-1.9,35.9-4v-69.3h-53.2v-64.9h132.5v185.2l-1.4,0.5C1222.6,618,1177.6,628.1,1134.6,628.1z
		 M1142.8,275.9c-118,0-194.6,70-195.1,178.2c0,50.3,17.1,94.5,48,124.5c32.2,30.6,77.6,45.5,138.9,45.5c41.8,0,85.6-9.7,113.2-18.9
		V426.9h-124.5v56.9h53.2v76l-1.2,0.5c-6.9,2.9-22.1,4.8-38.7,4.8c-67.5,0-111-45.2-111-115.1c0-70.1,44.7-113.6,116.7-113.6
		c32.1,0,56.5,4.3,78.5,14.1l15.4-59C1218.5,283.8,1185.2,275.9,1142.8,275.9z"/>
	<rect x="352.3" y="311.8" class="st2" width="4" height="128"/>
	<circle class="st2" cx="354.3" cy="311.8" r="6"/>
	<circle class="st2" cx="354.3" cy="439.8" r="6"/>
	<rect x="348.3" y="369.8" class="st3" width="12" height="12"/>
	<path class="st2" d="M362.3,383.8h-16v-16h16V383.8z M350.3,379.8h8v-8h-8V379.8z"/>
	<rect x="584.8" y="456.6" class="st2" width="4" height="128"/>
	<circle class="st2" cx="586.8" cy="456.6" r="6"/>
	<circle class="st2" cx="586.8" cy="584.6" r="6"/>
	<rect x="580.8" y="514.6" class="st3" width="12" height="12"/>
	<path class="st2" d="M594.8,528.6h-16v-16h16V528.6z M582.8,524.6h8v-8h-8V524.6z"/>
	<rect x="420.9" y="270.4" class="st2" width="128" height="4"/>
	<circle class="st2" cx="420.9" cy="272.4" r="6"/>
	<circle class="st2" cx="548.9" cy="272.4" r="6"/>
	<rect x="478.9" y="266.4" class="st3" width="12" height="12"/>
	<path class="st2" d="M492.9,280.4h-16v-16h16V280.4z M480.9,276.4h8v-8h-8V276.4z"/>
	<rect x="384" y="625.6" class="st2" width="128" height="4"/>
	<circle class="st2" cx="384" cy="627.6" r="6"/>
	<circle class="st2" cx="512" cy="627.6" r="6"/>
	<rect x="442" y="621.6" class="st3" width="12" height="12"/>
	<path class="st2" d="M456,635.6h-16v-16h16V635.6z M444,631.6h8v-8h-8V631.6z"/>
	<rect x="604.8" y="271.5" class="st3" width="12" height="12"/>
	<path class="st2" d="M618.8,285.5h-16v-16h16V285.5z M606.8,281.5h8v-8h-8V281.5z"/>
	<rect x="690.3" y="271.5" class="st3" width="12" height="12"/>
	<path class="st2" d="M704.3,285.5h-16v-16h16V285.5z M692.3,281.5h8v-8h-8V281.5z"/>
	<rect x="763.8" y="540.8" class="st3" width="12" height="12"/>
	<path class="st2" d="M777.8,554.8h-16v-16h16V554.8z M765.8,550.8h8v-8h-8V550.8z"/>
	<rect x="839.8" y="271.5" class="st3" width="12" height="12"/>
	<path class="st2" d="M853.8,285.5h-16v-16h16V285.5z M841.8,281.5h8v-8h-8V281.5z"/>
	<rect x="922.8" y="271.5" class="st3" width="12" height="12"/>
	<path class="st2" d="M936.8,285.5h-16v-16h16V285.5z M924.8,281.5h8v-8h-8V281.5z"/>
	<rect x="715.4" y="616.5" class="st3" width="12" height="12"/>
	<path class="st2" d="M729.4,630.5h-16v-16h16V630.5z M717.4,626.5h8v-8h-8V626.5z"/>
	<rect x="806.5" y="616.5" class="st3" width="12" height="12"/>
	<path class="st2" d="M820.5,630.5h-16v-16h16V630.5z M808.5,626.5h8v-8h-8V626.5z"/>
	<rect x="1168.5" y="479.8" class="st3" width="12" height="12"/>
	<path class="st2" d="M1182.5,493.8h-16v-16h16V493.8z M1170.5,489.8h8v-8h-8V489.8z"/>
	<rect x="1115.3" y="479.8" class="st3" width="12" height="12"/>
	<path class="st2" d="M1129.3,493.8h-16v-16h16V493.8z M1117.3,489.8h8v-8h-8V489.8z"/>
	<rect x="1115.3" y="418.9" class="st3" width="12" height="12"/>
	<path class="st2" d="M1129.3,432.9h-16v-16h16V432.9z M1117.3,428.9h8v-8h-8V428.9z"/>
	<rect x="1243.8" y="418.9" class="st3" width="12" height="12"/>
	<path class="st2" d="M1257.8,432.9h-16v-16h16V432.9z M1245.8,428.9h8v-8h-8V428.9z"/>
	<rect x="1168.5" y="552.5" class="st3" width="12" height="12"/>
	<path class="st2" d="M1182.5,566.5h-16v-16h16V566.5z M1170.5,562.5h8v-8h-8V562.5z"/>
	<rect x="1243.8" y="600.7" class="st3" width="12" height="12"/>
	<path class="st2" d="M1257.8,614.7h-16v-16h16V614.7z M1245.8,610.7h8v-8h-8V610.7z"/>
	<rect x="943.7" y="350.1" class="st2" width="4" height="208"/>
	<circle class="st2" cx="945.7" cy="350.1" r="6"/>
	<circle class="st2" cx="945.7" cy="558.1" r="6"/>
	<rect x="939.7" y="448.1" class="st3" width="12" height="12"/>
	<path class="st2" d="M953.7,462.1h-16v-16h16V462.1z M941.7,458.1h8v-8h-8V458.1z"/>
	<rect x="1038.8" y="271.9" class="st2" width="168" height="4"/>
	<circle class="st2" cx="1038.8" cy="273.9" r="6"/>
	<circle class="st2" cx="1206.8" cy="273.9" r="6"/>
	<rect x="1136.8" y="267.9" class="st3" width="12" height="12"/>
	<path class="st2" d="M1150.8,281.9h-16v-16h16V281.9z M1138.8,277.9h8v-8h-8V277.9z"/>
	<rect x="1030.6" y="624.1" class="st2" width="168" height="4"/>
	<circle class="st2" cx="1030.6" cy="626.1" r="6"/>
	<circle class="st2" cx="1198.6" cy="626.1" r="6"/>
	<rect x="1128.6" y="620.1" class="st3" width="12" height="12"/>
	<path class="st2" d="M1142.6,634.1h-16v-16h16V634.1z M1130.6,630.1h8v-8h-8V630.1z"/>
	<rect x="1025.6" y="390.1" class="st2" width="4" height="128"/>
	<circle class="st2" cx="1027.6" cy="390.1" r="6"/>
	<circle class="st2" cx="1027.6" cy="518.1" r="6"/>
	<rect x="1021.6" y="448.1" class="st3" width="12" height="12"/>
	<path class="st2" d="M1035.6,462.1h-16v-16h16V462.1z M1023.6,458.1h8v-8h-8V458.1z"/>
	<rect x="431.7" y="325.1" class="st2" width="4" height="88"/>
	<circle class="st2" cx="433.7" cy="325.1" r="6"/>
	<circle class="st2" cx="433.7" cy="413.1" r="6"/>
	<rect x="427.7" y="363.1" class="st3" width="12" height="12"/>
	<path class="st2" d="M441.7,377.1h-16v-16h16V377.1z M429.7,373.1h8v-8h-8V373.1z"/>
	<rect x="505.4" y="482.3" class="st2" width="4" height="88"/>
	<ellipse transform="matrix(0.1602 -0.9871 0.9871 0.1602 -49.9331 905.8707)" class="st2" cx="507.4" cy="482.3" rx="6" ry="6"/>
	<ellipse transform="matrix(0.1602 -0.9871 0.9871 0.1602 -136.7958 979.7738)" class="st2" cx="507.4" cy="570.3" rx="6" ry="6"/>
	<rect x="501.4" y="520.3" class="st3" width="12" height="12"/>
	<path class="st2" d="M515.4,534.3h-16v-16h16V534.3z M503.4,530.3h8v-8h-8V530.3z"/>
	<rect x="549.5" y="346.2" class="st3" width="12" height="12"/>
	<path class="st2" d="M563.5,360.2h-16v-16h16V360.2z M551.5,356.2h8v-8h-8V356.2z"/>
	<rect x="566.9" y="283.8" class="st3" width="12" height="12"/>
	<path class="st2" d="M580.9,297.8h-16v-16h16V297.8z M568.9,293.8h8v-8h-8V293.8z"/>
	<rect x="360.1" y="536.2" class="st3" width="12" height="12"/>
	<path class="st2" d="M374.1,550.2h-16v-16h16V550.2z M362.1,546.2h8v-8h-8V546.2z"/>
	<rect x="344.2" y="600.1" class="st3" width="12" height="12"/>
	<path class="st2" d="M358.2,614.1h-16v-16h16V614.1z M346.2,610.1h8v-8h-8V610.1z"/>
	<rect x="1216.1" y="347.2" class="st3" width="12" height="12"/>
	<path class="st2" d="M1230.1,361.2h-16v-16h16V361.2z M1218.1,357.2h8v-8h-8V357.2z"/>
	<rect x="1232.5" y="284.3" class="st3" width="12" height="12"/>
	<path class="st2" d="M1246.5,298.3h-16v-16h16V298.3z M1234.5,294.3h8v-8h-8V294.3z"/>
</g>
</svg>
