<svg xmlns="http://www.w3.org/2000/svg" width="31.911" height="31.911" viewBox="0 0 31.9109 31.9109"><path class="a" d="M15.9554.0891A15.9555,15.9555,0,1,0,31.9109,16.0446,15.9555,15.9555,0,0,0,15.9554.0891ZM3.4284,16.2109,15.7891,28.5716A12.528,12.528,0,0,1,3.4284,16.2109ZM18.76,28.2584,3.7416,13.24A12.531,12.531,0,0,1,26.085,8.671L24.35,10.2016a10.23,10.23,0,0,0-18.0141,2.36L19.438,25.6638a10.249,10.249,0,0,0,6.4484-7.1646H20.4557V16.0446h8.0289A12.5338,12.5338,0,0,1,18.76,28.2584Z" transform="translate(0 -0.0891)"/></svg>